<?xml version="1.0" encoding="UTF-8"?>
<svg width="512px" height="512px" viewBox="0 0 512 512" version="1.1" xmlns="http://www.w3.org/2000/svg" xmlns:xlink="http://www.w3.org/1999/xlink">
    <!-- Generator: Sketch 63.1 (92452) - https://sketch.com -->
    <title>Profile Picture</title>
    <desc>Created with Sketch.</desc>
    <g id="Profile-Picture" stroke="none" stroke-width="1" fill="none" fill-rule="evenodd">
        <rect fill="#1D1F20" x="0" y="0" width="512" height="512"></rect>
        <g id="Group">
            <rect id="Rectangle" fill="#1D1F20" x="0" y="0" width="512" height="512"></rect>
            <path d="M264.833523,383 L319.799316,231.129032 C327.95553,209.129032 334.693273,182.16129 337.530217,161.225806 L341.076397,161.225806 L341.076397,348.580645 C334.338655,349.290323 322.990878,351.774194 317.31699,353.548387 C315.189282,359.580645 312.706956,371.645161 311.997719,378.741935 L411.645382,378.741935 C412,376.258065 412,374.129032 412,370.935484 C412,364.548387 411.645382,357.451613 410.22691,353.193548 C401.716078,351.419355 389.659065,350 380.438997,349.290323 L380.438997,159.096774 C388.595211,158.741935 400.652223,157.322581 407.744584,155.903226 C409.163056,149.870968 409.517674,135.677419 408.45382,130 L325.827822,130 L273.344356,271.225806 C266.961231,288.258065 260.578107,313.806452 258.095781,332.612903 L254.904219,332.612903 C252.776511,313.806452 246.393387,288.258065 240.010262,270.870968 L189.299886,130 L104.191562,130 C103.127708,135.677419 103.482326,149.870968 104.900798,156.258065 C110.574686,157.322581 121.213227,158.741935 128.660205,159.451613 L128.660205,348.935484 C122.277081,350 111.283922,352.129032 105.610034,353.903226 C103.482326,360.290323 101.354618,371.645161 101,378.741935 L185.753706,378.741935 C186.81756,373.064516 186.108324,359.225806 184.689852,353.548387 C178.306727,351.419355 168.377423,350 160.930445,349.290323 L160.930445,161.935484 L164.122007,161.935484 C166.604333,182.16129 173.696693,208.419355 181.143672,229.354839 L236.464082,383 L264.833523,383 Z" id="M" fill="#C5C8C9" fill-rule="nonzero"></path>
        </g>
    </g>
</svg>