<?xml version="1.0" encoding="UTF-8"?>
<svg width="16px" height="16px" viewBox="0 0 16 16" version="1.1" xmlns="http://www.w3.org/2000/svg" xmlns:xlink="http://www.w3.org/1999/xlink">
    <g id="Profile-Picture" stroke="none" stroke-width="1" fill="none" fill-rule="evenodd">
        <rect fill="#1D1F20" x="0" y="0" width="16" height="16"></rect>
        <g id="Group" transform="translate(3.000000, 4.000000)" fill="black" fill-rule="nonzero">
            <path d="M5.27604761,7.96875 L6.99372862,3.22278226 C7.24861032,2.53528226 7.45916477,1.69254032 7.54781927,1.03830645 L7.6586374,1.03830645 L7.6586374,6.89314516 C7.44808295,6.91532258 7.09346494,6.99294355 6.91615593,7.0483871 C6.84966505,7.23689516 6.77209236,7.61391129 6.74992873,7.83568548 L9.86391819,7.83568548 C9.875,7.75806452 9.875,7.69153226 9.875,7.59173387 C9.875,7.3921371 9.86391819,7.1703629 9.81959094,7.03729839 C9.55362742,6.98185484 9.17684578,6.9375 8.88871864,6.91532258 L8.88871864,0.971774194 C9.14360034,0.960685484 9.52038198,0.916330645 9.74201824,0.871975806 C9.7863455,0.683467742 9.79742731,0.239919355 9.76418187,0.0625 L7.18211944,0.0625 L5.54201112,4.47580645 C5.34253848,5.00806452 5.14306585,5.80645161 5.06549316,6.39415323 L4.96575684,6.39415323 C4.89926596,5.80645161 4.69979333,5.00806452 4.5003207,4.46471774 L2.91562144,0.0625 L0.255986317,0.0625 C0.222740878,0.239919355 0.233822691,0.683467742 0.278149943,0.883064516 C0.455458951,0.916330645 0.787913341,0.960685484 1.02063141,0.982862903 L1.02063141,6.90423387 C0.82115878,6.9375 0.477622577,7.00403226 0.300313569,7.05947581 C0.233822691,7.25907258 0.167331813,7.61391129 0.15625,7.83568548 L2.80480331,7.83568548 C2.83804875,7.65826613 2.81588512,7.22580645 2.77155787,7.0483871 C2.57208523,6.98185484 2.26179447,6.9375 2.0290764,6.91532258 L2.0290764,1.06048387 L2.12881271,1.06048387 C2.2063854,1.69254032 2.42802166,2.51310484 2.66073974,3.16733871 L4.38950257,7.96875 L5.27604761,7.96875 Z" id="M"></path>
        </g>
    </g>
</svg>